HIERARCHY
ROOT Hips
{
	OFFSET 0.000000 0.000000 0.000000 
	CHANNELS 6 Xposition Yposition Zposition Yrotation Zrotation Xrotation 
	JOINT Lumbar
	{
		OFFSET 0.000000 0.000000 0.000000 
		CHANNELS 3 Zrotation Xrotation Yrotation
		JOINT Neck
		{
			OFFSET 0.000000 0.445665 0.000000 
			CHANNELS 3 Zrotation Xrotation Yrotation
			End Site
			{
				OFFSET 0.000000 0.227535 0.000000 
			}
		}
		JOINT RightShoulder
		{
			OFFSET 0.019635 0.377685 0.194865 
			CHANNELS 3 Zrotation Xrotation Yrotation
			JOINT RightElbow
			{
				OFFSET 0.000000 -0.243375 0.000000 
				CHANNELS 2 Zrotation Yrotation
				JOINT RightWrist
				{
					OFFSET 0.000000 -0.264825 0.000000 
					CHANNELS 2 Zrotation Xrotation
					End Site
					{
						OFFSET 0.006600 -0.176220 0.000990 
					}
				}
			}
		}
		JOINT LeftShoulder
		{
			OFFSET 0.019635 0.377685 -0.194865 
			CHANNELS 3 Zrotation Xrotation Yrotation
			JOINT LeftElbow
			{
				OFFSET 0.000000 -0.243375 0.000000 
				CHANNELS 2 Zrotation Yrotation
				JOINT LeftWrist
				{
					OFFSET 0.000000 -0.264825 0.000000 
					CHANNELS 2 Zrotation Xrotation
					End Site
					{
						OFFSET 0.006600 -0.176220 -0.000990 
					}
				}
			}
		}
	}
	JOINT RightHip
	{
		OFFSET 0.052140 -0.069960 0.075570 
		CHANNELS 3 Zrotation Xrotation Yrotation
		JOINT RightKnee
		{
			OFFSET 0.000000 -0.402270 0.000000 
			CHANNELS 1 Zrotation
			JOINT RightAnkle
			{
				OFFSET 0.000000 -0.404085 0.000000 
				CHANNELS 3 Zrotation Xrotation Yrotation
				End Site
				{
					OFFSET 0.204105 -0.089430 0.008415 
				}
			}
		}
	}
	JOINT LeftHip
	{
		OFFSET 0.052140 -0.069960 -0.075570 
		CHANNELS 3 Zrotation Xrotation Yrotation
		JOINT LeftKnee
		{
			OFFSET 0.000000 -0.402270 0.000000 
			CHANNELS 1 Zrotation
			JOINT LeftAnkle
			{
				OFFSET 0.000000 -0.404085 0.000000 
				CHANNELS 3 Zrotation Xrotation Yrotation
				End Site
				{
					OFFSET 0.204105 -0.089430 -0.008415 
				}
			}
		}
	}
}
MOTION
Frames: 28
Frame Time: 0.02
0.32302 0.04936 0.04292 60.26559 -16.89867 -7.22364 33.9519 0.61824 -2.36843 -11.69673 -2.08073 -2.11993 5.24225 -28.46818 25.23111 126.75898 110.5518 17.81709 2.75324 12.60247 41.43501 -7.94561 122.83094 -100.65874 26.75046 0.32892 25.82568 0.89497 -14.57091 -19.57174 -6.88241 -3.76487 -4.07564 36.6843 13.32363 -1.86626 -32.51523 -8.88955 1.09478 2.87388
0.32679 0.04863 0.04469 60.43461 -16.79846 -7.52366 33.9979 0.61126 -2.68044 -11.87388 -1.42865 -2.11993 5.84473 -28.75899 25.14286 126.5074 107.57733 17.85318 2.15304 11.23259 40.75638 -7.31909 122.64611 -97.79551 27.75693 0.71571 25.63564 1.31568 -15.4164 -19.58641 -6.80809 -3.71988 -4.04985 36.47988 13.48163 -1.59836 -32.38185 -8.81028 1.30221 2.97111
0.33036 0.04768 0.04604 60.50669 -16.77062 -7.87515 34.13445 0.62157 -3.0807 -12.05398 -0.65771 -2.11993 6.5168 -28.88338 25.01235 126.10548 103.27096 18.12208 1.24531 9.44733 40.22037 -6.40284 122.40963 -92.78822 28.97694 1.39965 25.52966 1.72907 -16.44118 -19.63335 -6.70609 -3.65378 -4.01247 36.20854 13.66672 -1.26209 -32.10351 -8.69559 1.53657 3.08012
0.33395 0.04685 0.04757 60.61682 -16.70623 -8.1929 34.22366 0.62547 -3.42407 -12.232 0.04487 -2.11993 7.13003 -29.0641 24.89356 125.78353 99.79187 18.27845 0.52237 7.87839 39.62493 -5.62706 122.2081 -89.04243 30.0557 1.9111 25.38499 2.14019 -17.34226 -19.66207 -6.62055 -3.60003 -3.98186 35.97408 13.83708 -0.9559 -31.90377 -8.60127 1.753 3.18118
0.33785 0.0459 0.04911 60.74846 -16.65371 -8.56007 34.3393 0.62371 -3.84054 -12.41493 0.82298 -2.11993 7.866 -29.3343 24.80639 125.4119 95.40196 18.45339 -0.38378 6.17777 38.99843 -4.81005 121.95999 -84.16293 31.32112 2.57021 25.23863 2.58132 -18.41858 -19.70596 -6.51878 -3.53482 -3.94494 35.7041 14.02248 -0.64687 -31.64526 -8.4877 1.99502 3.29389
0.34105 0.04516 0.05054 60.81441 -16.59582 -8.83414 34.4211 0.63711 -4.12497 -12.58691 1.46639 -2.11993 8.35878 -29.37693 24.64395 125.10846 92.5688 18.64823 -0.98663 4.66107 38.47345 -4.01247 121.79545 -81.08205 32.24951 2.99923 25.11789 2.95459 -19.1758 -19.7259 -6.44405 -3.48823 -3.91832 35.49701 14.18103 -0.33064 -31.47741 -8.40622 2.18879 3.38451
0.34246 0.04506 0.05181 60.71434 -16.49582 -8.84101 34.39 0.69543 -4.02209 -12.73699 1.70709 -2.11993 8.17674 -28.81462 24.2766 125.02735 94.53411 18.84747 -0.64411 3.72483 38.19824 -3.33031 121.88031 -83.78774 32.18199 2.68382 25.03874 3.15674 -18.98049 -19.67147 -6.45226 -3.50019 -3.924 35.45894 14.25981 -0.00666 -31.58452 -8.42264 2.25191 3.41572
0.34317 0.04519 0.05299 60.55337 -16.39012 -8.7514 34.32143 0.76741 -3.78356 -12.8742 1.80641 -2.11993 7.74467 -28.03109 23.83656 125.02046 98.07884 19.0591 0.00773 2.99536 38.02147 -2.68023 122.04992 -88.31873 31.77035 2.13394 24.98454 3.28765 -18.46272 -19.59205 -6.48836 -3.53128 -3.94029 35.49079 14.30962 0.31988 -31.78933 -8.47252 2.26383 3.42346
0.34417 0.04522 0.05419 60.4264 -16.29367 -8.70322 34.26798 0.82796 -3.60697 -13.01109 1.96921 -2.11993 7.41637 -27.35848 23.43414 124.98165 100.78409 19.26226 0.49586 2.19199 37.79701 -2.02145 122.17636 -91.8083 31.52434 1.71684 24.92488 3.44068 -18.11115 -19.524 -6.51068 -3.55228 -3.95106 35.50595 14.37157 0.64203 -31.9586 -8.50704 2.2929 3.43892
0.34529 0.0452 0.05544 60.26991 -16.17148 -8.66609 34.22488 0.90978 -3.43051 -13.1738 2.13913 -2.11993 7.12977 -26.63549 23.00958 124.9306 103.95397 19.48498 1.07054 1.28877 37.58662 -1.3262 122.31993 -96.10341 31.24599 1.20113 24.84302 3.63592 -17.68427 -19.4562 -6.53667 -3.57831 -3.96429 35.45703 14.4395 0.98259 -32.0901 -8.54153 2.34828 3.46703
0.34598 0.04534 0.05658 60.16095 -16.10074 -8.58362 34.15126 0.95206 -3.22259 -13.28008 2.25976 -2.11993 6.6991 -25.96815 22.61606 124.9238 106.55208 19.66736 1.54299 0.64858 37.3725 -0.72016 122.44957 -99.20099 30.95149 0.82894 24.81258 3.72755 -17.33352 -19.38254 -6.56201 -3.59882 -3.97514 35.55648 14.48694 1.28166 -32.31936 -8.58375 2.33692 3.46332
0.34567 0.04591 0.05755 60.20514 -16.17221 -8.38795 33.99273 0.86649 -2.94185 -13.22968 2.2714 -2.11993 5.90492 -25.49951 22.31242 125.02846 107.16009 19.73114 1.6537 0.68323 37.08967 -0.33883 122.51129 -98.38767 30.68694 0.92983 24.9144 3.54014 -17.28734 -19.28976 -6.5787 -3.59826 -3.97634 36.07099 14.49133 1.49078 -32.84659 -8.64592 2.14885 3.37542
0.34494 0.04663 0.05841 60.29832 -16.29545 -8.15179 33.80628 0.7432 -2.63725 -13.1236 2.23896 -2.11993 4.97929 -25.09695 22.04536 125.17421 107.14959 19.75377 1.65308 0.97804 36.80567 -0.05045 122.55753 -96.34505 30.41876 1.17831 25.0671 3.25274 -17.32551 -19.19328 -6.59389 -3.59178 -3.97491 36.72812 14.47469 1.65412 -33.45954 -8.71371 1.89624 3.25669
0.34439 0.04725 0.05927 60.36514 -16.39555 -7.94158 33.63846 0.64742 -2.35568 -13.04576 2.23107 -2.11993 4.13077 -24.67104 21.77059 125.29738 107.44503 19.79655 1.70746 1.15607 36.54365 0.27031 122.6174 -94.98069 30.15746 1.34485 25.19878 3.01814 -17.31354 -19.1045 -6.60994 -3.58893 -3.97508 37.30616 14.46336 1.82001 -34.00038 -8.77459 1.67623 3.15336
0.34388 0.04801 0.06032 60.44762 -16.49419 -7.69645 33.44383 0.5093 -2.01799 -12.95541 2.19966 -2.11993 3.19918 -24.20943 21.45533 125.44061 107.68928 19.83283 1.75389 1.33367 36.19347 0.6328 122.65415 -93.17856 29.86209 1.56554 25.3236 2.75059 -17.33872 -18.99022 -6.62625 -3.58288 -3.97398 37.94873 14.46919 2.05839 -34.6859 -8.85472 1.44039 3.0432
0.34318 0.0485 0.06096 60.50921 -16.60779 -7.51531 33.29951 0.44902 -1.79327 -12.87763 2.20811 -2.11993 2.41396 -23.84037 21.23439 125.54952 107.87352 19.87389 1.78639 1.57287 36.02678 0.8854 122.73202 -91.96675 29.64141 1.71228 25.47308 2.52809 -17.3127 -18.92756 -6.64123 -3.58169 -3.97468 38.4875 14.43439 2.14077 -35.08741 -8.89601 1.22319 2.94042
0.34207 0.04814 0.06058 60.50747 -16.75387 -7.52447 33.29587 0.62318 -1.88643 -12.85196 2.34198 -2.11993 2.05536 -23.71608 21.2627 125.56523 108.03259 19.92819 1.80721 1.90505 36.35252 0.86798 122.94615 -92.73174 29.6278 1.61281 25.68961 2.46137 -17.10866 -19.01643 -6.65351 -3.5966 -3.9817 38.72482 14.29467 1.75102 -34.69943 -8.82551 1.07081 2.86419
0.34079 0.04751 0.05978 60.48201 -16.91252 -7.59915 33.34503 0.87483 -2.09439 -12.84017 2.51728 -2.11993 1.85194 -23.68308 21.38566 125.54262 108.14737 19.99082 1.81651 2.29185 36.86392 0.74149 123.19824 -94.11525 29.69102 1.43612 25.92692 2.44243 -16.8545 -19.15603 -6.66427 -3.61626 -3.99046 38.84879 14.11445 1.21431 -34.02008 -8.71612 0.94027 2.79687
0.33957 0.04703 0.05911 60.46369 -17.06294 -7.64196 33.37343 1.08442 -2.25088 -12.81969 2.6714 -2.11993 1.58476 -23.60552 21.46689 125.52937 108.281 20.05575 1.82978 2.66141 37.30097 0.65782 123.42014 -95.17705 29.72102 1.29972 26.14709 2.39755 -16.63575 -19.26721 -6.67522 -3.63283 -3.99794 39.01102 13.95163 0.78105 -33.46224 -8.62648 0.80143 2.72638
0.33837 0.04641 0.05868 60.46287 -17.22582 -7.69237 33.38689 1.32226 -2.40498 -12.80755 2.83407 -2.11993 1.28318 -23.54186 21.54309 125.55094 108.39725 20.09231 1.84438 3.00789 37.70093 0.59861 123.69618 -96.37048 29.74418 1.14617 26.40159 2.3673 -16.36755 -19.4008 -6.68823 -3.6532 -4.00742 39.23373 13.79266 0.19694 -32.95005 -8.52842 0.65291 2.65083
0.33711 0.04602 0.05765 60.41874 -17.36499 -7.74273 33.44477 1.51931 -2.58977 -12.78178 2.98907 -2.11993 1.09324 -23.47164 21.65282 125.49117 108.54978 20.19204 1.85526 3.41231 38.21572 0.46473 123.86863 -97.45007 29.79906 1.00836 26.58881 2.31884 -16.18793 -19.49995 -6.69662 -3.66679 -4.01316 39.3023 13.61588 -0.11422 -32.27678 -8.43843 0.53124 2.58866
0.33576 0.04632 0.05508 60.2659 -17.43535 -7.78028 33.60883 1.59205 -2.84783 -12.71782 3.11559 -2.11993 1.16331 -23.34791 21.82442 125.20759 108.78881 20.44952 1.85536 3.959 39.05575 0.14008 123.74555 -98.08906 29.92935 0.92996 26.58471 2.21236 -16.27751 -19.49057 -6.69247 -3.66101 -4.00818 38.96619 13.40417 0.42493 -31.19208 -8.38155 0.47305 2.5588
0.33435 0.04686 0.05191 60.06924 -17.48085 -7.81524 33.81627 1.61993 -3.13 -12.63958 3.23269 -2.11993 1.3433 -23.21662 22.02866 124.84417 109.07225 20.77204 1.85319 4.56152 39.99348 -0.25572 123.51685 -98.59456 30.0868 0.86965 26.5117 2.08575 -16.45508 -19.44512 -6.68375 -3.64821 -3.99941 38.47909 13.17538 1.23325 -29.96199 -8.33384 0.44241 2.5427
0.33296 0.04728 0.04899 59.88884 -17.53805 -7.84922 34.00674 1.66368 -3.39014 -12.56604 3.35246 -2.11993 1.48006 -23.09697 22.22155 124.52358 109.35588 21.07614 1.85481 5.14007 40.85314 -0.60811 123.33693 -99.14933 30.22865 0.80256 26.47071 1.96615 -16.58407 -19.41674 -6.67719 -3.63826 -3.99236 38.06523 12.95154 1.87814 -28.82289 -8.28106 0.40302 2.52211
0.33158 0.04771 0.04614 59.72245 -17.59537 -7.89401 34.18877 1.72897 -3.70035 -12.49977 3.48039 -2.11993 1.59253 -22.94569 22.39925 124.17689 109.55635 21.33839 1.84454 5.71505 41.86733 -1.00152 123.15574 -99.76848 30.39066 0.72776 26.4288 1.85682 -16.74834 -19.38679 -6.67019 -3.62978 -3.98532 37.62929 12.73764 2.68929 -27.56842 -8.23081 0.34862 2.49446
0.33017 0.04819 0.04301 59.51754 -17.64466 -7.9155 34.39633 1.73802 -3.91133 -12.41573 3.58865 -2.11993 1.78121 -22.8576 22.61987 123.86255 109.93521 21.69699 1.85836 6.30964 42.57304 -1.33702 122.95073 -100.21965 30.51147 0.67308 26.37052 1.72117 -16.85977 -19.35149 -6.66313 -3.6167 -3.97741 37.20333 12.50013 3.22262 -26.52359 -8.17791 0.33153 2.48454
0.32867 0.0488 0.03928 59.21089 -17.69292 -7.86705 34.67771 1.59984 -3.83551 -12.27642 3.64312 -2.11993 2.14185 -22.9416 22.91219 123.68674 110.8513 22.36147 1.94242 6.94843 42.46427 -1.39408 122.71283 -100.18769 30.5532 0.68079 26.29848 1.51348 -16.81201 -19.3049 -6.65617 -3.59096 -3.9674 36.85655 12.19659 2.90205 -26.09421 -8.11619 0.41251 2.52119
0.32713 0.04946 0.03529 58.86847 -17.73141 -7.79605 34.98027 1.40679 -3.66023 -12.12045 3.67782 -2.11993 2.57806 -23.08901 23.25501 123.54038 111.9372 23.11212 2.05043 7.60508 42.02869 -1.4107 122.45296 -99.99689 30.54574 0.70668 26.20995 1.28045 -16.70701 -19.25504 -6.64948 -3.56113 -3.95674 36.52336 11.87112 2.29795 -25.88226 -8.05162 0.52954 2.57492
